<?xml version="1.0" standalone="no"?>
<!DOCTYPE svg PUBLIC "-//W3C//DTD SVG 20010904//EN"
 "http://www.w3.org/TR/2001/REC-SVG-20010904/DTD/svg10.dtd">
<svg version="1.0" xmlns="http://www.w3.org/2000/svg"
 width="512.000000pt" height="512.000000pt" viewBox="0 0 512.000000 512.000000"
 preserveAspectRatio="xMidYMid meet">

<g transform="translate(0.000000,512.000000) scale(0.100000,-0.100000)"
fill="white" stroke="none">
<path d="M1895 4630 c-369 -50 -656 -306 -747 -667 -21 -80 -23 -112 -23 -368
0 -262 1 -282 20 -313 11 -18 36 -43 55 -55 34 -21 44 -22 320 -22 276 0 286
1 320 22 71 44 74 59 80 331 5 241 5 244 29 263 22 18 47 19 613 19 l589 0 24
-25 25 -24 0 -511 c0 -567 1 -555 -66 -606 l-37 -29 -246 -6 c-280 -8 -315
-14 -460 -85 -132 -65 -240 -173 -305 -305 -71 -146 -78 -181 -83 -444 -4
-225 -4 -231 19 -275 16 -31 36 -51 67 -67 43 -22 52 -23 310 -23 257 0 268 1
311 23 73 36 90 81 90 243 l0 131 188 6 c255 8 367 37 547 142 83 48 220 176
280 260 55 77 119 209 145 298 37 130 42 237 37 802 -3 515 -5 544 -25 623
-84 321 -323 559 -644 644 -81 21 -100 22 -728 24 -355 1 -672 -2 -705 -6z
m1399 -170 c262 -67 459 -264 526 -526 19 -72 20 -113 20 -646 0 -618 -2 -648
-57 -786 -75 -187 -249 -363 -438 -441 -119 -50 -200 -61 -435 -61 l-212 0
-29 -29 -29 -29 0 -171 0 -171 -240 0 -240 0 0 198 c0 144 4 214 15 257 46
181 177 327 355 394 61 23 81 25 320 30 l255 6 67 33 c76 37 120 82 157 162
l26 55 3 518 c3 596 3 596 -73 672 -75 76 -68 75 -725 75 -654 0 -648 1 -724
-73 -67 -64 -76 -107 -76 -359 l0 -208 -240 0 -240 0 0 248 c0 215 3 259 20
326 66 260 263 458 522 526 68 18 117 19 734 19 626 1 665 0 738 -19z"/>
<path d="M2320 1269 c-202 -40 -347 -249 -311 -451 31 -177 153 -298 330 -329
259 -46 498 194 452 454 -30 172 -150 295 -321 327 -60 11 -87 11 -150 -1z
m206 -185 c30 -18 60 -48 79 -78 27 -44 30 -58 30 -126 0 -68 -3 -82 -30 -126
-19 -30 -49 -60 -79 -79 -44 -27 -58 -30 -126 -30 -68 0 -82 3 -126 30 -159
99 -150 335 18 419 74 38 163 34 234 -10z"/>
</g>
</svg>
